<?xml version="1.0" encoding="UTF-8"?>
<!DOCTYPE svg PUBLIC "-//W3C//DTD SVG 1.1//EN" "http://www.w3.org/Graphics/SVG/1.1/DTD/svg11.dtd">
<svg xmlns="http://www.w3.org/2000/svg" version="1.1" viewBox="0 0 99 99" style="shape-rendering:geometricPrecision; text-rendering:geometricPrecision; image-rendering:optimizeQuality; fill-rule:evenodd; clip-rule:evenodd" xmlns:xlink="http://www.w3.org/1999/xlink">
<g><path style="opacity:0.975" fill="#228ae6" d="M 40.5,7.5 C 60.6499,5.48275 69.4833,14.4828 67,34.5C 61.6574,45.7523 52.8241,49.9189 40.5,47C 29.2477,41.6574 25.0811,32.8241 28,20.5C 30.3531,14.3154 34.5198,9.98203 40.5,7.5 Z"/></g>
<g><path style="opacity:0.982" fill="#228ae6" d="M 19.5,55.5 C 38.1696,55.3334 56.8363,55.5001 75.5,56C 77.3333,56.5 78.5,57.6667 79,59.5C 81.7529,73.423 76.2529,82.2564 62.5,86C 52.4915,87.9691 42.4915,87.9691 32.5,86C 18.7471,82.2564 13.2471,73.423 16,59.5C 16.6897,57.6498 17.8564,56.3164 19.5,55.5 Z"/></g>
</svg>
