<?xml version="1.0" encoding="UTF-8"?>
<!DOCTYPE svg PUBLIC "-//W3C//DTD SVG 1.1//EN" "http://www.w3.org/Graphics/SVG/1.1/DTD/svg11.dtd">
<svg xmlns="http://www.w3.org/2000/svg" version="1.1" viewBOx="0 0 100 100" style="shape-rendering:geometricPrecision; text-rendering:geometricPrecision; image-rendering:optimizeQuality; fill-rule:evenodd; clip-rule:evenodd" xmlns:xlink="http://www.w3.org/1999/xlink">
<g><path style="opacity:0.967" fill="#228be6" d="M 41.5,1.5 C 69.4869,-0.345863 82.6536,12.6541 81,40.5C 73.4448,59.6987 63.7782,77.6987 52,94.5C 50.3333,95.8333 48.6667,95.8333 47,94.5C 35.2218,77.6987 25.5552,59.6987 18,40.5C 15.1591,20.82 22.9924,7.81996 41.5,1.5 Z M 44.5,18.5 C 61.7649,18.2567 67.5982,26.2567 62,42.5C 55.7488,49.0107 48.5821,50.1773 40.5,46C 33.9893,39.7488 32.8227,32.5821 37,24.5C 39.1141,21.8792 41.6141,19.8792 44.5,18.5 Z"/></g>
<g><path style="opacity:0.939" fill="#218ae5" d="M 45.5,25.5 C 48.1873,25.3359 50.854,25.5026 53.5,26C 52.6198,27.3561 52.2865,28.8561 52.5,30.5C 54.1439,30.7135 55.6439,30.3802 57,29.5C 58.5359,40.497 54.0359,43.997 43.5,40C 41.5715,36.7441 41.0715,33.2441 42,29.5C 42.6897,27.6498 43.8564,26.3164 45.5,25.5 Z"/></g>
</svg>
