<?xml version="1.0" encoding="UTF-8"?>
<!DOCTYPE svg PUBLIC "-//W3C//DTD SVG 1.1//EN" "http://www.w3.org/Graphics/SVG/1.1/DTD/svg11.dtd">
<svg xmlns="http://www.w3.org/2000/svg" version="1.1" viewBox="0 0 64 64" style="shape-rendering:geometricPrecision; text-rendering:geometricPrecision; image-rendering:optimizeQuality; fill-rule:evenodd; clip-rule:evenodd" xmlns:xlink="http://www.w3.org/1999/xlink">
<g><path style="opacity:0.907" fill="#228be6" d="M 0.5,5.5 C 3.51838,5.33537 6.51838,5.50204 9.5,6C 11.02,7.88469 12.02,10.0514 12.5,12.5C 14.7649,13.6474 17.0982,13.8141 19.5,13C 22.601,11.0335 25.7676,9.20019 29,7.5C 31.6383,8.91746 33.4716,11.0841 34.5,14C 38.2204,15.392 40.2204,14.2253 40.5,10.5C 47.2601,11.0171 53.2601,13.3505 58.5,17.5C 57.1199,23.7792 55.9532,30.1125 55,36.5C 54.9071,39.0075 54.0738,41.1741 52.5,43C 40.1667,43.6667 27.8333,43.6667 15.5,43C 15,42.5 14.5,42 14,41.5C 11.5459,30.8464 8.71255,20.3464 5.5,10C 3.86586,9.50649 2.19919,9.33982 0.5,9.5C 0.5,8.16667 0.5,6.83333 0.5,5.5 Z M 15.5,19.5 C 20.0568,18.2454 24.7235,18.4121 29.5,20C 26.3333,21.8333 23.1667,23.6667 20,25.5C 18.7225,23.2528 17.2225,21.2528 15.5,19.5 Z M 39.5,19.5 C 43.0641,20.4227 46.7307,20.756 50.5,20.5C 50.3259,22.861 49.9926,25.1944 49.5,27.5C 45.8333,26.8333 42.1667,26.1667 38.5,25.5C 38.5172,23.4352 38.8505,21.4352 39.5,19.5 Z M 25.5,28.5 C 26.4972,28.4701 27.1639,28.9701 27.5,30C 28.5655,33.0937 29.2322,36.2604 29.5,39.5C 25.6494,40.0291 22.1494,39.3625 19,37.5C 18.654,35.7818 18.154,34.1151 17.5,32.5C 20.2497,31.1252 22.9163,29.7918 25.5,28.5 Z M 33.5,29.5 C 38.0304,31.0065 42.697,32.0065 47.5,32.5C 47.5,34.8333 47.5,37.1667 47.5,39.5C 43.1667,39.5 38.8333,39.5 34.5,39.5C 34.3841,36.1401 34.0508,32.8067 33.5,29.5 Z"/></g>
<g><path style="opacity:0.901" fill="#218ae5" d="M 17.5,47.5 C 25.4863,46.998 27.4863,50.1647 23.5,57C 15.424,57.8047 13.424,54.638 17.5,47.5 Z"/></g>
<g><path style="opacity:0.901" fill="#218ae5" d="M 43.5,47.5 C 51.4863,46.998 53.4863,50.1647 49.5,57C 41.424,57.8047 39.424,54.638 43.5,47.5 Z"/></g>
</svg>
