<?xml version="1.0" encoding="iso-8859-1"?>
<!-- Generator: Adobe Illustrator 28.4.1, SVG Export Plug-In . SVG Version: 6.00 Build 0)  -->
<svg fill="#228BE6" version="1.1" baseProfile="basic" id="Layer_1"
	 xmlns="http://www.w3.org/2000/svg" xmlns:xlink="http://www.w3.org/1999/xlink" x="0px" y="0px" viewBox="0 0 29 29"
	 xml:space="preserve">
<path d="M18,14c-0.603,0-1.17,0.144-1.684,0.384L14.613,12l1.703-2.384C16.83,9.856,17.397,10,18,10c2.206,0,4-1.794,4-4
	s-1.794-4-4-4s-4,1.794-4,4c0,0.681,0.187,1.312,0.488,1.874l-2.054,2.876H9.78C9.252,9.158,7.767,8,6,8c-2.206,0-4,1.794-4,4
	s1.794,4,4,4c1.767,0,3.252-1.158,3.78-2.75h2.653l2.054,2.876C14.187,16.688,14,17.319,14,18c0,2.206,1.794,4,4,4s4-1.794,4-4
	S20.206,14,18,14z"/>
</svg>