<?xml version="1.0" encoding="UTF-8"?>
<svg xmlns="http://www.w3.org/2000/svg" version="1.1" viewBox="0 0 100 100" style="shape-rendering:geometricPrecision; text-rendering:geometricPrecision; image-rendering:optimizeQuality; fill-rule:evenodd; clip-rule:evenodd" xmlns:xlink="http://www.w3.org/1999/xlink">
<g><path style="opacity:0.998" fill="#7f868d" d="M 3.5,1.5 C 9.5,1.5 15.5,1.5 21.5,1.5C 21.5,3.5 21.5,5.5 21.5,7.5C 16.8333,7.5 12.1667,7.5 7.5,7.5C 7.5,12.1667 7.5,16.8333 7.5,21.5C 5.5,21.5 3.5,21.5 1.5,21.5C 1.33385,15.4908 1.50051,9.49076 2,3.5C 2.71719,2.9558 3.21719,2.28913 3.5,1.5 Z"/></g>
<g><path style="opacity:1" fill="#7f868d" d="M 73.5,1.5 C 79.5092,1.33385 85.5092,1.50051 91.5,2C 92,2.5 92.5,3 93,3.5C 93.4995,9.49076 93.6662,15.4908 93.5,21.5C 91.5,21.5 89.5,21.5 87.5,21.5C 87.5,16.8333 87.5,12.1667 87.5,7.5C 82.8333,7.5 78.1667,7.5 73.5,7.5C 73.5,5.5 73.5,3.5 73.5,1.5 Z"/></g>
<g><path style="opacity:0.966" fill="#e0e2e4" d="M 78.5,24.5 C 78.0618,24.4346 77.7284,24.6012 77.5,25C 82.3034,32.7235 82.8034,40.8902 79,49.5C 78.34,51.3237 77.1733,52.657 75.5,53.5C 75.9306,47.972 75.2639,42.6387 73.5,37.5C 71.3071,31.3055 67.3071,26.6388 61.5,23.5C 42.0737,15.1214 28.2403,20.7881 20,40.5C 18.6088,48.0639 19.7755,55.0639 23.5,61.5C 24.1098,62.391 24.4431,63.391 24.5,64.5C 20.8501,63.5062 20.8501,64.3395 24.5,67C 23.8333,67.6667 23.1667,67.6667 22.5,67C 13.9113,57.0629 9.57796,45.5629 9.5,32.5C 15.9746,22.2225 25.308,16.0558 37.5,14C 50.2335,11.898 62.2335,13.898 73.5,20C 75.6175,21.0491 77.2842,22.5491 78.5,24.5 Z"/></g>
<g><path style="opacity:1" fill="#34b9ec" d="M 61.5,23.5 C 56.6499,25.6722 52.6499,29.0055 49.5,33.5C 46.4467,33.1107 43.78,33.7773 41.5,35.5C 37.8463,32.4133 35.1796,33.08 33.5,37.5C 33.7517,39.0729 34.4183,40.4062 35.5,41.5C 33.7773,43.78 33.1107,46.4467 33.5,49.5C 29.0055,52.6499 25.6722,56.6499 23.5,61.5C 19.7755,55.0639 18.6088,48.0639 20,40.5C 28.2403,20.7881 42.0737,15.1214 61.5,23.5 Z"/></g>
<g><path style="opacity:1" fill="#2aaee7" d="M 61.5,23.5 C 67.3071,26.6388 71.3071,31.3055 73.5,37.5C 72.8826,37.3893 72.3826,37.056 72,36.5C 68.6309,40.0374 65.1309,43.3707 61.5,46.5C 61.5674,45.0413 61.2341,43.7079 60.5,42.5C 58.3414,37.6762 54.6747,34.6762 49.5,33.5C 52.6499,29.0055 56.6499,25.6722 61.5,23.5 Z"/></g>
<g><path style="opacity:1" fill="#d4d7d9" d="M 78.5,24.5 C 84.0791,27.9885 87.4124,32.9885 88.5,39.5C 87.0998,55.8019 79.0998,67.6352 64.5,75C 32.6367,83.2478 13.3033,71.4145 6.5,39.5C 6.70732,36.7594 7.70732,34.4261 9.5,32.5C 9.57796,45.5629 13.9113,57.0629 22.5,67C 23.1667,67.6667 23.8333,67.6667 24.5,67C 20.8501,64.3395 20.8501,63.5062 24.5,64.5C 36.3418,76.8774 49.6751,78.7107 64.5,70C 69.6603,65.3683 73.327,59.8683 75.5,53.5C 77.1733,52.657 78.34,51.3237 79,49.5C 82.8034,40.8902 82.3034,32.7235 77.5,25C 77.7284,24.6012 78.0618,24.4346 78.5,24.5 Z"/></g>
<g><path style="opacity:1" fill="#27a8e5" d="M 73.5,37.5 C 75.2639,42.6387 75.9306,47.972 75.5,53.5C 73.327,59.8683 69.6603,65.3683 64.5,70C 49.6751,78.7107 36.3418,76.8774 24.5,64.5C 24.4431,63.391 24.1098,62.391 23.5,61.5C 25.6722,56.6499 29.0055,52.6499 33.5,49.5C 33.9887,50.9952 34.6554,52.3285 35.5,53.5C 40.2213,61.7844 46.888,63.6178 55.5,59C 59.5102,55.8046 61.5102,51.638 61.5,46.5C 65.1309,43.3707 68.6309,40.0374 72,36.5C 72.3826,37.056 72.8826,37.3893 73.5,37.5 Z"/></g>
<g><path style="opacity:1" fill="#373838" d="M 49.5,33.5 C 54.6747,34.6762 58.3414,37.6762 60.5,42.5C 53.6598,49.7575 45.3265,53.4242 35.5,53.5C 34.6554,52.3285 33.9887,50.9952 33.5,49.5C 33.1107,46.4467 33.7773,43.78 35.5,41.5C 39.8333,41.8333 41.8333,39.8333 41.5,35.5C 43.78,33.7773 46.4467,33.1107 49.5,33.5 Z"/></g>
<g><path style="opacity:1" fill="#f4f8f9" d="M 41.5,35.5 C 41.8333,39.8333 39.8333,41.8333 35.5,41.5C 34.4183,40.4062 33.7517,39.0729 33.5,37.5C 35.1796,33.08 37.8463,32.4133 41.5,35.5 Z"/></g>
<g><path style="opacity:1" fill="#c7cbce" d="M 6.5,39.5 C 13.3033,71.4145 32.6367,83.2478 64.5,75C 79.0998,67.6352 87.0998,55.8019 88.5,39.5C 91.4457,58.4764 83.779,71.643 65.5,79C 43.8144,85.7884 25.3144,80.955 10,64.5C 5.57103,56.5073 4.40436,48.174 6.5,39.5 Z"/></g>
<g><path style="opacity:1" fill="#2d2e2f" d="M 60.5,42.5 C 61.2341,43.7079 61.5674,45.0413 61.5,46.5C 61.5102,51.638 59.5102,55.8046 55.5,59C 46.888,63.6178 40.2213,61.7844 35.5,53.5C 45.3265,53.4242 53.6598,49.7575 60.5,42.5 Z"/></g>
<g><path style="opacity:0.999" fill="#7f868d" d="M 1.5,73.5 C 3.5,73.5 5.5,73.5 7.5,73.5C 7.5,78.1667 7.5,82.8333 7.5,87.5C 12.1667,87.5 16.8333,87.5 21.5,87.5C 21.5,89.5 21.5,91.5 21.5,93.5C 15.4908,93.6662 9.49076,93.4995 3.5,93C 3,92.5 2.5,92 2,91.5C 1.50051,85.5092 1.33385,79.5092 1.5,73.5 Z"/></g>
<g><path style="opacity:0.94" fill="#7d848b" d="M 87.5,73.5 C 89.5,73.5 91.5,73.5 93.5,73.5C 93.6662,79.5092 93.4995,85.5092 93,91.5C 92.5,92 92,92.5 91.5,93C 85.5092,93.4995 79.5092,93.6662 73.5,93.5C 73.5,91.5 73.5,89.5 73.5,87.5C 78.1667,87.5 82.8333,87.5 87.5,87.5C 87.5,82.8333 87.5,78.1667 87.5,73.5 Z"/></g>
</svg>
