<?xml version="1.0" encoding="UTF-8"?>
<!DOCTYPE svg PUBLIC "-//W3C//DTD SVG 1.1//EN" "http://www.w3.org/Graphics/SVG/1.1/DTD/svg11.dtd">
<svg xmlns="http://www.w3.org/2000/svg" version="1.1" viewBox="0 0 512 512" style="shape-rendering:geometricPrecision; text-rendering:geometricPrecision; image-rendering:optimizeQuality; fill-rule:evenodd; clip-rule:evenodd" xmlns:xlink="http://www.w3.org/1999/xlink">
<g><path style="opacity:0.984" fill="#28a5ff" d="M 250.5,99.5 C 227.001,86.9209 204.001,73.5875 181.5,59.5C 191.771,56.3075 202.271,54.3075 213,53.5C 240.193,56.5487 252.693,71.8821 250.5,99.5 Z"/></g>
<g><path style="opacity:0.993" fill="#2b9fff" d="M 181.5,59.5 C 204.001,73.5875 227.001,86.9209 250.5,99.5C 250.5,107.167 250.5,114.833 250.5,122.5C 218.562,104.863 186.895,86.6959 155.5,68C 154.207,67.51 152.873,67.3433 151.5,67.5C 161.314,64.5447 171.314,61.878 181.5,59.5 Z"/></g>
<g><path style="opacity:0.993" fill="#2d98ff" d="M 151.5,67.5 C 152.873,67.3433 154.207,67.51 155.5,68C 186.895,86.6959 218.562,104.863 250.5,122.5C 250.5,131.5 250.5,140.5 250.5,149.5C 206.973,125.242 163.973,100.242 121.5,74.5C 131.425,71.8521 141.425,69.5188 151.5,67.5 Z"/></g>
<g><path style="opacity:0.988" fill="#24b1ff" d="M 316.5,68.5 C 319.758,69.1708 323.091,70.0042 326.5,71C 350.861,85.1783 375.194,99.345 399.5,113.5C 399.666,120.175 399.5,126.842 399,133.5C 394.527,142.482 387.36,145.649 377.5,143C 373,141.167 369.833,138 368,133.5C 367.924,123.427 367.258,113.427 366,103.5C 365.5,103 365,102.5 364.5,102C 355.84,101.5 347.173,101.334 338.5,101.5C 335.695,100.681 332.695,100.181 329.5,100C 313.167,90.5 296.833,81 280.5,71.5C 279.893,71.6236 279.56,71.9569 279.5,72.5C 278.566,71.4324 278.232,70.099 278.5,68.5C 291.167,68.5 303.833,68.5 316.5,68.5 Z"/></g>
<g><path style="opacity:0.985" fill="#21b8ff" d="M 316.5,68.5 C 334.17,68.3334 351.836,68.5001 369.5,69C 391.552,75.5742 401.552,90.4076 399.5,113.5C 375.194,99.345 350.861,85.1783 326.5,71C 323.091,70.0042 319.758,69.1708 316.5,68.5 Z"/></g>
<g><path style="opacity:0.96" fill="#26acff" d="M 338.5,101.5 C 319.5,101.5 300.5,101.5 281.5,101.5C 281.812,91.7517 281.145,82.0851 279.5,72.5C 279.56,71.9569 279.893,71.6236 280.5,71.5C 296.833,81 313.167,90.5 329.5,100C 332.695,100.181 335.695,100.681 338.5,101.5 Z"/></g>
<g><path style="opacity:0.996" fill="#3092ff" d="M 121.5,74.5 C 163.973,100.242 206.973,125.242 250.5,149.5C 250.5,157.167 250.5,164.833 250.5,172.5C 197.92,142.866 145.92,112.533 94.5,81.5C 103.441,79.0146 112.441,76.6813 121.5,74.5 Z"/></g>
<g><path style="opacity:0.996" fill="#328cff" d="M 94.5,81.5 C 145.92,112.533 197.92,142.866 250.5,172.5C 250.5,180.167 250.5,187.833 250.5,195.5C 189.301,160.404 128.301,125.071 67.5,89.5C 76.0704,85.7692 85.0704,83.1025 94.5,81.5 Z"/></g>
<g><path style="opacity:0.996" fill="#3486ff" d="M 67.5,89.5 C 128.301,125.071 189.301,160.404 250.5,195.5C 250.5,203.167 250.5,210.833 250.5,218.5C 184.302,180.235 117.969,142.235 51.5,104.5C 54.9137,97.4186 60.2471,92.4186 67.5,89.5 Z"/></g>
<g><path style="opacity:0.997" fill="#377fff" d="M 51.5,104.5 C 117.969,142.235 184.302,180.235 250.5,218.5C 250.5,228.833 250.5,239.167 250.5,249.5C 249.931,246.937 248.597,244.77 246.5,243C 180.139,204.822 113.806,166.655 47.5,128.5C 46.6675,120.078 48.0009,112.078 51.5,104.5 Z"/></g>
<g><path style="opacity:0.998" fill="#3979ff" d="M 47.5,128.5 C 113.806,166.655 180.139,204.822 246.5,243C 248.597,244.77 249.931,246.937 250.5,249.5C 250.5,257.167 250.5,264.833 250.5,272.5C 249.931,269.937 248.597,267.77 246.5,266C 180.139,227.822 113.806,189.655 47.5,151.5C 47.5,143.833 47.5,136.167 47.5,128.5 Z"/></g>
<g><path style="opacity:0.998" fill="#3b73ff" d="M 47.5,151.5 C 113.806,189.655 180.139,227.822 246.5,266C 248.597,267.77 249.931,269.937 250.5,272.5C 250.5,280.167 250.5,287.833 250.5,295.5C 249.931,292.937 248.597,290.77 246.5,289C 180.139,250.822 113.806,212.655 47.5,174.5C 47.5,166.833 47.5,159.167 47.5,151.5 Z"/></g>
<g><path style="opacity:0.999" fill="#3d6dff" d="M 47.5,174.5 C 113.806,212.655 180.139,250.822 246.5,289C 248.597,290.77 249.931,292.937 250.5,295.5C 250.5,303.167 250.5,310.833 250.5,318.5C 249.177,314.003 246.177,310.837 241.5,309C 176.945,271.606 112.279,234.439 47.5,197.5C 47.5,189.833 47.5,182.167 47.5,174.5 Z"/></g>
<g><path style="opacity:0.986" fill="#2b9fff" d="M 456.5,241.5 C 426.297,224.905 396.631,207.572 367.5,189.5C 370.094,177.688 377.428,173.188 389.5,176C 412.643,196.976 434.976,218.809 456.5,241.5 Z"/></g>
<g><path style="opacity:0.989" fill="#2d99ff" d="M 367.5,189.5 C 396.631,207.572 426.297,224.905 456.5,241.5C 463.117,246.558 465.284,253.225 463,261.5C 462.065,264.595 460.231,266.929 457.5,268.5C 440.005,259.589 423.005,249.922 406.5,239.5C 395.214,226.699 383.047,214.032 370,201.5C 367.868,197.792 367.035,193.792 367.5,189.5 Z"/></g>
<g><path style="opacity:0.999" fill="#4067ff" d="M 47.5,197.5 C 112.279,234.439 176.945,271.606 241.5,309C 246.177,310.837 249.177,314.003 250.5,318.5C 250.5,325.833 250.5,333.167 250.5,340.5C 182.671,302.086 115.004,263.42 47.5,224.5C 47.5,215.5 47.5,206.5 47.5,197.5 Z"/></g>
<g><path style="opacity:0.998" fill="#4260ff" d="M 47.5,224.5 C 115.004,263.42 182.671,302.086 250.5,340.5C 250.5,348.167 250.5,355.833 250.5,363.5C 182.671,325.086 115.004,286.42 47.5,247.5C 47.5,239.833 47.5,232.167 47.5,224.5 Z"/></g>
<g><path style="opacity:0.998" fill="#3486ff" d="M 327.5,239.5 C 345.167,250.167 362.833,260.833 380.5,271.5C 367.167,271.5 353.833,271.5 340.5,271.5C 324.095,261.102 307.429,251.102 290.5,241.5C 290.918,240.778 291.584,240.278 292.5,240C 304.162,239.5 315.829,239.333 327.5,239.5 Z"/></g>
<g><path style="opacity:0.999" fill="#328cff" d="M 327.5,239.5 C 340.5,239.5 353.5,239.5 366.5,239.5C 391.553,254.53 416.886,269.197 442.5,283.5C 438.167,288.5 433.5,293.167 428.5,297.5C 417.984,293.083 408.317,287.416 399.5,280.5C 401.962,277.536 404.629,274.703 407.5,272C 398.506,271.5 389.506,271.334 380.5,271.5C 362.833,260.833 345.167,250.167 327.5,239.5 Z"/></g>
<g><path style="opacity:0.992" fill="#3092ff" d="M 366.5,239.5 C 379.833,239.5 393.167,239.5 406.5,239.5C 423.005,249.922 440.005,259.589 457.5,268.5C 452.833,273.833 447.833,278.833 442.5,283.5C 416.886,269.197 391.553,254.53 366.5,239.5 Z"/></g>
<g><path style="opacity:0.988" fill="#3680ff" d="M 290.5,241.5 C 307.429,251.102 324.095,261.102 340.5,271.5C 324.497,271.667 308.497,271.5 292.5,271C 281.91,265.564 279.076,257.397 284,246.5C 285.777,244.21 287.944,242.543 290.5,241.5 Z"/></g>
<g><path style="opacity:0.998" fill="#455aff" d="M 47.5,247.5 C 115.004,286.42 182.671,325.086 250.5,363.5C 250.5,371.167 250.5,378.833 250.5,386.5C 182.671,348.086 115.004,309.42 47.5,270.5C 47.5,262.833 47.5,255.167 47.5,247.5 Z"/></g>
<g><path style="opacity:0.998" fill="#4754ff" d="M 47.5,270.5 C 115.004,309.42 182.671,348.086 250.5,386.5C 250.5,394.167 250.5,401.833 250.5,409.5C 182.833,370.833 115.167,332.167 47.5,293.5C 47.5,285.833 47.5,278.167 47.5,270.5 Z"/></g>
<g><path style="opacity:0.962" fill="#3486ff" d="M 399.5,280.5 C 408.317,287.416 417.984,293.083 428.5,297.5C 423.5,303.167 418.167,308.5 412.5,313.5C 403.63,306.664 393.964,300.998 383.5,296.5C 388.5,290.833 393.833,285.5 399.5,280.5 Z"/></g>
<g><path style="opacity:0.998" fill="#494eff" d="M 47.5,293.5 C 115.167,332.167 182.833,370.833 250.5,409.5C 250.666,415.509 250.499,421.509 250,427.5C 249.61,430.104 248.776,432.438 247.5,434.5C 180.833,396.5 114.167,358.5 47.5,320.5C 47.5,311.5 47.5,302.5 47.5,293.5 Z"/></g>
<g><path style="opacity:0.975" fill="#377eff" d="M 383.5,296.5 C 393.964,300.998 403.63,306.664 412.5,313.5C 406.369,320.131 400.036,326.631 393.5,333C 375.133,339.294 366.633,332.794 368,313.5C 372.295,307.039 377.461,301.372 383.5,296.5 Z"/></g>
<g><path style="opacity:0.998" fill="#4c47ff" d="M 47.5,320.5 C 114.167,358.5 180.833,396.5 247.5,434.5C 245.348,441.648 241.015,446.981 234.5,450.5C 172.302,414.569 109.969,378.902 47.5,343.5C 47.5,335.833 47.5,328.167 47.5,320.5 Z"/></g>
<g><path style="opacity:0.998" fill="#4e41ff" d="M 47.5,343.5 C 109.969,378.902 172.302,414.569 234.5,450.5C 230.901,453.883 226.567,456.049 221.5,457C 215.418,457.788 209.418,457.621 203.5,456.5C 151.535,426.182 99.5355,395.848 47.5,365.5C 47.5,358.167 47.5,350.833 47.5,343.5 Z"/></g>
<g><path style="opacity:0.992" fill="#503cff" d="M 47.5,365.5 C 99.5355,395.848 151.535,426.182 203.5,456.5C 184.573,452.435 165.907,447.768 147.5,442.5C 114.448,422.803 81.1143,403.47 47.5,384.5C 47.5,378.167 47.5,371.833 47.5,365.5 Z"/></g>
<g><path style="opacity:0.983" fill="#3d6dff" d="M 399.5,400.5 C 389.22,394.727 379.054,388.727 369,382.5C 368.617,383.056 368.117,383.389 367.5,383.5C 367.828,373.172 373.161,367.839 383.5,367.5C 391.027,367.18 396.193,370.513 399,377.5C 399.5,385.159 399.666,392.826 399.5,400.5 Z"/></g>
<g><path style="opacity:0.991" fill="#4067ff" d="M 399.5,400.5 C 400.561,409.128 398.895,417.128 394.5,424.5C 384.798,419.321 375.465,413.655 366.5,407.5C 367.403,399.542 367.736,391.542 367.5,383.5C 368.117,383.389 368.617,383.056 369,382.5C 379.054,388.727 389.22,394.727 399.5,400.5 Z"/></g>
<g><path style="opacity:0.966" fill="#5236ff" d="M 47.5,384.5 C 81.1143,403.47 114.448,422.803 147.5,442.5C 119.825,436.581 92.4912,429.415 65.5,421C 52.1973,412.56 46.1973,400.394 47.5,384.5 Z"/></g>
<g><path style="opacity:0.972" fill="#4360ff" d="M 366.5,407.5 C 375.465,413.655 384.798,419.321 394.5,424.5C 390.703,430.966 385.37,435.633 378.5,438.5C 363.003,429.197 347.336,420.03 331.5,411C 333.382,410.802 335.048,410.302 336.5,409.5C 345.839,409.666 355.173,409.5 364.5,409C 365.044,408.283 365.711,407.783 366.5,407.5 Z"/></g>
<g><path style="opacity:0.967" fill="#4754ff" d="M 296.5,409.5 C 295.048,410.302 293.382,410.802 291.5,411C 309.727,421.274 327.727,431.774 345.5,442.5C 323.167,442.5 300.833,442.5 278.5,442.5C 281.001,431.655 282.001,420.655 281.5,409.5C 286.5,409.5 291.5,409.5 296.5,409.5 Z"/></g>
<g><path style="opacity:0.966" fill="#455aff" d="M 296.5,409.5 C 309.833,409.5 323.167,409.5 336.5,409.5C 335.048,410.302 333.382,410.802 331.5,411C 347.336,420.03 363.003,429.197 378.5,438.5C 375.865,440.328 372.865,441.495 369.5,442C 361.507,442.5 353.507,442.666 345.5,442.5C 327.727,431.774 309.727,421.274 291.5,411C 293.382,410.802 295.048,410.302 296.5,409.5 Z"/></g>
</svg>
