<?xml version="1.0" encoding="UTF-8"?>
<svg xmlns="http://www.w3.org/2000/svg" version="1.1" viewBox="0 0 550 550" style="shape-rendering:geometricPrecision; text-rendering:geometricPrecision; image-rendering:optimizeQuality; fill-rule:evenodd; clip-rule:evenodd" xmlns:xlink="http://www.w3.org/1999/xlink">
<g><path style="opacity:0.997" fill="#64abec" d="M 34.5,63.5 C 78.5,89.1667 122.5,114.833 166.5,140.5C 152.167,140.5 137.833,140.5 123.5,140.5C 85.9923,117.997 47.9923,96.3306 9.5,75.5C 16.0886,68.0402 24.4219,64.0402 34.5,63.5 Z"/></g>
<g><path style="opacity:1" fill="#65b2ed" d="M 34.5,63.5 C 51.5,63.5 68.5,63.5 85.5,63.5C 129.002,89.4188 172.669,115.085 216.5,140.5C 199.833,140.5 183.167,140.5 166.5,140.5C 122.5,114.833 78.5,89.1667 34.5,63.5 Z"/></g>
<g><path style="opacity:0.997" fill="#66b8ed" d="M 85.5,63.5 C 99.8333,63.5 114.167,63.5 128.5,63.5C 171.607,88.8924 214.94,114.059 258.5,139C 256.292,139.191 254.292,139.691 252.5,140.5C 240.5,140.5 228.5,140.5 216.5,140.5C 172.669,115.085 129.002,89.4188 85.5,63.5 Z"/></g>
<g><path style="opacity:0.997" fill="#68beee" d="M 128.5,63.5 C 142.833,63.5 157.167,63.5 171.5,63.5C 215.331,88.9145 258.998,114.581 302.5,140.5C 285.833,140.5 269.167,140.5 252.5,140.5C 254.292,139.691 256.292,139.191 258.5,139C 214.94,114.059 171.607,88.8924 128.5,63.5 Z"/></g>
<g><path style="opacity:0.997" fill="#69c4ee" d="M 171.5,63.5 C 185.833,63.5 200.167,63.5 214.5,63.5C 258.5,89.1667 302.5,114.833 346.5,140.5C 331.833,140.5 317.167,140.5 302.5,140.5C 258.998,114.581 215.331,88.9145 171.5,63.5 Z"/></g>
<g><path style="opacity:0.998" fill="#6ac8ef" d="M 214.5,63.5 C 219.5,63.5 224.5,63.5 229.5,63.5C 273.002,89.4188 316.669,115.085 360.5,140.5C 355.833,140.5 351.167,140.5 346.5,140.5C 302.5,114.833 258.5,89.1667 214.5,63.5 Z"/></g>
<g><path style="opacity:0.998" fill="#6bcbee" d="M 229.5,63.5 C 241.167,63.5 252.833,63.5 264.5,63.5C 302.443,86.145 340.777,108.312 379.5,130C 382.921,131.699 385.921,133.865 388.5,136.5C 379.573,140.114 370.24,141.447 360.5,140.5C 316.669,115.085 273.002,89.4188 229.5,63.5 Z"/></g>
<g><path style="opacity:0.996" fill="#6cd1ef" d="M 264.5,63.5 C 278.833,63.5 293.167,63.5 307.5,63.5C 339.833,82.6691 372.5,101.336 405.5,119.5C 401.5,126.833 395.833,132.5 388.5,136.5C 385.921,133.865 382.921,131.699 379.5,130C 340.777,108.312 302.443,86.145 264.5,63.5 Z"/></g>
<g><path style="opacity:0.996" fill="#6dd8f0" d="M 307.5,63.5 C 331.502,63.3334 355.502,63.5 379.5,64C 401.432,70.6731 411.265,85.5064 409,108.5C 408.526,112.422 407.359,116.088 405.5,119.5C 372.5,101.336 339.833,82.6691 307.5,63.5 Z"/></g>
<g><path style="opacity:0.981" fill="#71e9f1" d="M 511.5,92.5 C 511.5,97.5 511.5,102.5 511.5,107.5C 510.883,107.611 510.383,107.944 510,108.5C 489.058,96.6146 468.224,84.6146 447.5,72.5C 457.662,64.2102 469.329,61.3769 482.5,64C 497.349,68.3497 507.015,77.8497 511.5,92.5 Z"/></g>
<g><path style="opacity:0.994" fill="#6fe3f1" d="M 447.5,72.5 C 468.224,84.6146 489.058,96.6146 510,108.5C 510.383,107.944 510.883,107.611 511.5,107.5C 511.5,108.5 511.5,109.5 511.5,110.5C 510.067,116.698 507.067,122.031 502.5,126.5C 482.024,114.426 461.357,102.592 440.5,91C 438.937,90.2411 437.937,89.0744 437.5,87.5C 439.231,81.4352 442.564,76.4352 447.5,72.5 Z"/></g>
<g><path style="opacity:0.994" fill="#62a5ec" d="M 9.5,75.5 C 47.9923,96.3306 85.9923,117.997 123.5,140.5C 106.833,140.5 90.1667,140.5 73.5,140.5C 74.9516,139.698 76.6183,139.198 78.5,139C 52.3928,123.617 26.0594,108.784 -0.5,94.5C -0.5,93.8333 -0.5,93.1667 -0.5,92.5C 1.54568,86.0752 4.87901,80.4086 9.5,75.5 Z"/></g>
<g><path style="opacity:0.987" fill="#6eddf0" d="M 437.5,87.5 C 437.937,89.0744 438.937,90.2411 440.5,91C 461.357,102.592 482.024,114.426 502.5,126.5C 502.141,128.371 501.141,129.871 499.5,131C 483.908,142.495 467.575,143.495 450.5,134C 435.223,121.36 430.89,105.86 437.5,87.5 Z"/></g>
<g><path style="opacity:0.99" fill="#619feb" d="M -0.5,94.5 C 26.0594,108.784 52.3928,123.617 78.5,139C 76.6183,139.198 74.9516,139.698 73.5,140.5C 58.8295,140.667 44.1629,140.5 29.5,140C 13.6524,135.985 3.65237,126.152 -0.5,110.5C -0.5,105.167 -0.5,99.8333 -0.5,94.5 Z"/></g>
<g><path style="opacity:0.984" fill="#5d8cea" d="M 33.5,216.5 C 48.1667,216.5 62.8333,216.5 77.5,216.5C 121.669,242.752 166.002,268.752 210.5,294.5C 193.833,294.5 177.167,294.5 160.5,294.5C 161.952,293.698 163.618,293.198 165.5,293C 121.331,267.636 77.3313,242.136 33.5,216.5 Z"/></g>
<g><path style="opacity:0.987" fill="#5e92ea" d="M 77.5,216.5 C 89.5,216.5 101.5,216.5 113.5,216.5C 118.392,216.884 123.058,218.384 127.5,221C 168.833,245 210.167,269 251.5,293C 249.618,293.198 247.952,293.698 246.5,294.5C 234.5,294.5 222.5,294.5 210.5,294.5C 166.002,268.752 121.669,242.752 77.5,216.5 Z"/></g>
<g><path style="opacity:0.983" fill="#6098eb" d="M 113.5,216.5 C 132.5,216.5 151.5,216.5 170.5,216.5C 214.998,242.248 259.331,268.248 303.5,294.5C 284.5,294.5 265.5,294.5 246.5,294.5C 247.952,293.698 249.618,293.198 251.5,293C 210.167,269 168.833,245 127.5,221C 123.058,218.384 118.392,216.884 113.5,216.5 Z"/></g>
<g><path style="opacity:0.987" fill="#619feb" d="M 170.5,216.5 C 182.5,216.5 194.5,216.5 206.5,216.5C 210.093,217.153 213.759,217.986 217.5,219C 260.167,243.667 302.833,268.333 345.5,293C 343.292,293.191 341.292,293.691 339.5,294.5C 327.5,294.5 315.5,294.5 303.5,294.5C 259.331,268.248 214.998,242.248 170.5,216.5 Z"/></g>
<g><path style="opacity:0.993" fill="#62a5eb" d="M 206.5,216.5 C 223.167,216.5 239.833,216.5 256.5,216.5C 299.167,241.5 341.833,266.5 384.5,291.5C 382.123,292.887 379.457,293.721 376.5,294C 364.171,294.5 351.838,294.667 339.5,294.5C 341.292,293.691 343.292,293.191 345.5,293C 302.833,268.333 260.167,243.667 217.5,219C 213.759,217.986 210.093,217.153 206.5,216.5 Z"/></g>
<g><path style="opacity:0.994" fill="#64abec" d="M 256.5,216.5 C 268.5,216.5 280.5,216.5 292.5,216.5C 296.903,216.987 301.236,218.154 305.5,220C 335.833,237.667 366.167,255.333 396.5,273C 398.65,274.411 400.984,275.245 403.5,275.5C 399.637,283.691 393.304,289.024 384.5,291.5C 341.833,266.5 299.167,241.5 256.5,216.5 Z"/></g>
<g><path style="opacity:0.991" fill="#5c86e9" d="M 33.5,216.5 C 77.3313,242.136 121.331,267.636 165.5,293C 163.618,293.198 161.952,293.698 160.5,294.5C 148.5,294.5 136.5,294.5 124.5,294.5C 86.7808,272.136 48.7808,250.136 10.5,228.5C 16.5803,221.625 24.247,217.625 33.5,216.5 Z"/></g>
<g><path style="opacity:0.998" fill="#65b1ed" d="M 292.5,216.5 C 311.833,216.5 331.167,216.5 350.5,216.5C 369.669,228.588 389.335,239.921 409.5,250.5C 410.088,258.117 408.921,265.45 406,272.5C 405.623,273.942 404.79,274.942 403.5,275.5C 400.984,275.245 398.65,274.411 396.5,273C 366.167,255.333 335.833,237.667 305.5,220C 301.236,218.154 296.903,216.987 292.5,216.5 Z"/></g>
<g><path style="opacity:0.995" fill="#66b6ed" d="M 350.5,216.5 C 359.173,216.334 367.84,216.5 376.5,217C 395.074,220.74 406.074,231.907 409.5,250.5C 389.335,239.921 369.669,228.588 350.5,216.5 Z"/></g>
<g><path style="opacity:0.985" fill="#5a80e9" d="M 10.5,228.5 C 48.7808,250.136 86.7808,272.136 124.5,294.5C 105.167,294.5 85.8333,294.5 66.5,294.5C 68.2922,293.691 70.2922,293.191 72.5,293C 48.112,279.143 23.7787,265.31 -0.5,251.5C -0.5,249.833 -0.5,248.167 -0.5,246.5C 1.63012,239.575 5.29679,233.575 10.5,228.5 Z"/></g>
<g><path style="opacity:0.978" fill="#5979e8" d="M -0.5,251.5 C 23.7787,265.31 48.112,279.143 72.5,293C 70.2922,293.191 68.2922,293.691 66.5,294.5C 55.1618,294.667 43.8284,294.5 32.5,294C 15.6368,290.633 4.63681,280.799 -0.5,264.5C -0.5,260.167 -0.5,255.833 -0.5,251.5 Z"/></g>
<g><path style="opacity:0.997" fill="#5567e7" d="M 77.5,370.5 C 121.5,396.167 165.5,421.833 209.5,447.5C 192.833,447.5 176.167,447.5 159.5,447.5C 116.167,422.167 72.8333,396.833 29.5,371.5C 45.3246,370.504 61.3246,370.17 77.5,370.5 Z"/></g>
<g><path style="opacity:0.998" fill="#576de7" d="M 77.5,370.5 C 89.5,370.5 101.5,370.5 113.5,370.5C 118.726,370.824 123.726,372.324 128.5,375C 165.725,396.776 203.058,418.276 240.5,439.5C 236.629,443.272 231.962,445.772 226.5,447C 220.843,447.499 215.176,447.666 209.5,447.5C 165.5,421.833 121.5,396.167 77.5,370.5 Z"/></g>
<g><path style="opacity:0.995" fill="#5873e8" d="M 113.5,370.5 C 130.5,370.5 147.5,370.5 164.5,370.5C 192.442,387.478 220.776,403.978 249.5,420C 251.439,420.908 252.439,422.408 252.5,424.5C 251.453,428.261 249.619,431.594 247,434.5C 245.223,436.79 243.056,438.457 240.5,439.5C 203.058,418.276 165.725,396.776 128.5,375C 123.726,372.324 118.726,370.824 113.5,370.5 Z"/></g>
<g><path style="opacity:0.992" fill="#5979e8" d="M 164.5,370.5 C 184.836,370.333 205.169,370.5 225.5,371C 244.968,376.427 254.968,389.261 255.5,409.5C 255.939,414.92 254.939,419.92 252.5,424.5C 252.439,422.408 251.439,420.908 249.5,420C 220.776,403.978 192.442,387.478 164.5,370.5 Z"/></g>
<g><path style="opacity:0.998" fill="#5460e6" d="M 29.5,371.5 C 72.8333,396.833 116.167,422.167 159.5,447.5C 145.167,447.5 130.833,447.5 116.5,447.5C 81.0598,426.608 45.3932,405.941 9.5,385.5C 8.70245,385.043 8.36912,384.376 8.5,383.5C 14.0273,376.983 21.0273,372.983 29.5,371.5 Z"/></g>
<g><path style="opacity:0.997" fill="#535ae6" d="M 8.5,383.5 C 8.36912,384.376 8.70245,385.043 9.5,385.5C 45.3932,405.941 81.0598,426.608 116.5,447.5C 102.167,447.5 87.8333,447.5 73.5,447.5C 48.503,433.337 23.8363,418.67 -0.5,403.5C -0.5,402.5 -0.5,401.5 -0.5,400.5C 1.17686,394.147 4.17686,388.48 8.5,383.5 Z"/></g>
<g><path style="opacity:0.996" fill="#5154e5" d="M -0.5,403.5 C 23.8363,418.67 48.503,433.337 73.5,447.5C 58.4963,447.667 43.4963,447.5 28.5,447C 13.6512,442.65 3.98451,433.15 -0.5,418.5C -0.5,413.5 -0.5,408.5 -0.5,403.5 Z"/></g>
</svg>
